<svg width="69" height="12" viewBox="0 0 69 12" fill="none" xmlns="http://www.w3.org/2000/svg">
<path d="M26.5859 0H14.5859V12H26.5859V0Z" fill="#00B67A"/>
<path d="M20.5859 8.10063L22.324 7.63522L23.0502 10L20.5859 8.10063ZM24.5859 5.04403H21.5264L20.5859 2L19.6455 5.04403H16.5859L19.0621 6.93082L18.1216 9.97484L20.5979 8.08805L22.1217 6.93082L24.5859 5.04403Z" fill="white"/>
<path d="M12.5859 0H0.585938V12H12.5859V0Z" fill="#00B67A"/>
<path d="M6.58595 8.10063L8.32404 7.63522L9.05023 10L6.58595 8.10063ZM10.5859 5.04403H7.52642L6.58595 2L5.64547 5.04403H2.58594L5.06212 6.93082L4.12165 9.97484L6.59785 8.08805L8.12166 6.93082L10.5859 5.04403Z" fill="white"/>
<path d="M40.5859 0H28.5859V12H40.5859V0Z" fill="#00B67A"/>
<path d="M34.5859 8.10063L36.324 7.63522L37.0502 10L34.5859 8.10063ZM38.5859 5.04403H35.5264L34.5859 2L33.6455 5.04403H30.5859L33.0621 6.93082L32.1216 9.97484L34.5979 8.08805L36.1217 6.93082L38.5859 5.04403Z" fill="white"/>
<path d="M54.5859 0H42.5859V12H54.5859V0Z" fill="#00B67A"/>
<path d="M48.5859 8.10063L50.324 7.63522L51.0502 10L48.5859 8.10063ZM52.5859 5.04403H49.5264L48.5859 2L47.6455 5.04403H44.5859L47.0621 6.93082L46.1216 9.97484L48.5979 8.08805L50.1217 6.93082L52.5859 5.04403Z" fill="white"/>
<path d="M68.5859 0H56.5859V12H68.5859V0Z" fill="#DCDCE6"/>
<path d="M62.5859 0H56.5859V12H62.5859V0Z" fill="#00B67A"/>
<path d="M62.5859 8.10063L64.324 7.63522L65.0502 10L62.5859 8.10063ZM66.5859 5.04403H63.5264L62.5859 2L61.6455 5.04403H58.5859L61.0621 6.93082L60.1216 9.97484L62.5979 8.08805L64.1217 6.93082L66.5859 5.04403Z" fill="white"/>
</svg>
