<svg width="230" height="32" viewBox="0 0 230 32" fill="none" xmlns="http://www.w3.org/2000/svg">
<path d="M0 0V20.657C0 26.5356 4.76967 31.3004 10.6542 31.3004H20.8869V20.8658H11.8632C11.0793 20.8658 10.4417 20.2288 10.4417 19.4457V0H0Z" fill="#171412"/>
<path d="M82.2307 11.1655C78.8651 11.1655 76.6945 12.7109 76.1928 15.9269H78.9278C79.2414 13.3165 80.4538 12.4812 82.2307 12.4812C84.0076 12.4812 85.3664 13.2121 85.3664 15.5928V16.9084L80.5793 17.8064C78.447 18.2032 75.7121 19.1638 75.7121 22.1466C75.7121 24.6735 77.6143 26.3859 80.8719 26.3859C83.0669 26.3859 84.3212 25.7176 85.3664 24.047H85.5127V26.0935H88.0003V15.9896C88.0003 12.8571 85.659 11.1655 82.2307 11.1655ZM85.3664 19.8947C85.3664 23.0655 84.0912 25.0703 81.29 25.0703C79.555 25.0703 78.4052 23.9635 78.4052 22.1466C78.4052 20.3298 79.1369 19.5397 81.1646 19.1012L85.3664 18.2032V19.8947Z" fill="#171412"/>
<path d="M178.715 11.1655C175.349 11.1655 173.175 12.7109 172.673 15.9269H175.412C175.725 13.3165 176.938 12.4812 178.715 12.4812C180.492 12.4812 181.85 13.2121 181.85 15.5928V16.9084L177.063 17.8064C174.931 18.2032 172.196 19.1638 172.196 22.1466C172.196 24.6735 174.095 26.3859 177.356 26.3859C179.551 26.3859 180.805 25.7176 181.85 24.047H181.997V26.0935H184.481V15.9896C184.481 12.8571 182.143 11.1655 178.715 11.1655ZM181.85 19.8947C181.85 23.0655 180.575 25.0703 177.774 25.0703C176.039 25.0703 174.889 23.9635 174.889 22.1466C174.889 20.3298 175.621 19.5397 177.649 19.1012L181.85 18.2032V19.8947Z" fill="#171412"/>
<path d="M188.745 32L191.003 25.7385L184.986 11.4788H187.867L192.09 22.5434H192.195L196.187 11.4788H197.982L190.167 32H188.745Z" fill="#171412"/>
<path d="M230 5.21731H227.303V26.0935H230V5.21731Z" fill="#171412"/>
<path d="M225.401 5.21731H222.704V26.0935H225.401V5.21731Z" fill="#171412"/>
<path d="M213.865 11.1655C209.329 11.1655 206.8 13.9012 206.8 18.767C206.8 23.6328 209.329 26.3859 213.865 26.3859C218.402 26.3859 220.948 23.6711 220.948 18.767C220.948 13.863 218.398 11.1655 213.865 11.1655ZM213.865 25.0703C211.085 25.0703 209.496 23.0864 209.496 18.767C209.496 14.4477 211.085 12.4812 213.865 12.4812C216.646 12.4812 218.273 14.4651 218.273 18.767C218.273 23.069 216.684 25.0703 213.865 25.0703Z" fill="#171412"/>
<path d="M199.319 26.0935V11.4788H202.037V13.1494H202.141C203.124 11.8129 203.563 11.4788 205.674 11.4788H206.594V12.7944H205.674C203.668 12.7944 202.037 13.5462 202.037 17.3887V26.0935H199.319Z" fill="#171412"/>
<path d="M164.754 5.21731H155.79V26.0935H158.633V17.347H164.754C169.269 17.347 171.924 15.4466 171.924 11.3535C171.924 7.26038 169.269 5.21731 164.754 5.21731ZM164.252 15.9687H158.633V6.5956H164.252C167.493 6.5956 169.081 7.53535 169.081 11.3535C169.081 15.1716 167.493 15.9687 164.252 15.9687Z" fill="#171412"/>
<path d="M145.027 32L147.285 25.7385L141.268 11.4788H144.153L148.372 22.5434H148.477L152.469 11.4788H154.267L146.449 32H145.027Z" fill="#171412"/>
<path d="M118.218 26.0935V5.21731H121.5L128.854 23.2952H128.98L136.335 5.21731H139.763V26.0935H136.92V7.93213H136.815L129.377 26.0935H127.224L119.764 7.93213H119.639V26.0935H118.218Z" fill="#171412"/>
<path d="M103.985 21.3948H106.661C106.661 24.1723 108.062 25.112 110.361 25.112C112.66 25.112 113.622 24.2349 113.622 22.3346C113.622 20.831 112.911 19.9956 111.218 19.5362L108.919 18.9097C106.159 18.2623 104.445 17.3852 104.445 14.9837C104.445 12.5821 106.995 11.1621 110.128 11.1621C113.26 11.1621 115.998 12.7074 115.998 15.7981H113.302C113.302 13.3966 111.922 12.4359 110.061 12.4359C108.201 12.4359 107.114 13.1668 107.114 15.0254C107.114 16.884 108.034 17.3226 109.622 17.7403L111.817 18.3459C114.409 19.0559 116.291 19.578 116.291 22.3554C116.291 24.8197 113.741 26.3859 110.316 26.3859C106.657 26.3859 103.985 24.8197 103.985 21.3948Z" fill="#171412"/>
<path d="M89.7981 26.0935V11.4788H92.4738V13.6924H92.5784C93.4563 12.0844 94.8778 11.1655 96.9892 11.1655C101.045 11.1655 102.734 13.6089 102.734 17.4897V26.0901H100.038V17.4897C100.038 14.399 99.3688 12.7074 96.3377 12.7074C93.9337 12.7074 92.4704 14.399 92.4704 17.4897V26.0901H89.7946L89.7981 26.0935Z" fill="#171412"/>
<path d="M67.5628 11.1655C63.0266 11.1655 60.4763 13.9012 60.4763 18.767C60.4763 23.6328 63.0266 26.3859 67.5628 26.3859C72.0991 26.3859 74.6459 23.6711 74.6459 18.767C74.6459 13.863 72.0956 11.1655 67.5628 11.1655ZM67.5628 25.0703C64.7825 25.0703 63.1938 23.0864 63.1938 18.767C63.1938 14.4477 64.7825 12.4812 67.5628 12.4812C70.3431 12.4812 71.9702 14.4651 71.9702 18.767C71.9702 23.069 70.3814 25.0703 67.5628 25.0703Z" fill="#171412"/>
<path d="M49.8429 5.21731H46.9999V26.0935H60.3961V24.7779H49.8429V5.21731Z" fill="#171412"/>
<path d="M36.5547 31.3004V10.6435C36.5547 4.76485 31.785 0 25.9005 0H15.6678V10.4346H24.6915C25.4754 10.4346 26.113 11.0716 26.113 11.8547V31.3039H36.5582L36.5547 31.3004Z" fill="#171412"/>
</svg>
